:FULLY-SPECIFIED
:FORCE-ALL-JOINTS-BE-3DOF
:DEGREES
849
root 3.62455 16.336 27.8406 -7.57031 1.18215 -2.49165
lfemur -23.0065 0.598542 -11.8794
ltibia 33.0823 -0 0
lfoot -2.90588 -10.9334 0.420265
ltoes 3.97909 -0 0
rfemur -22.4741 -14.5702 14.4866
rtibia 51.6013 -0 0
rfoot 7.46953 12.6844 -0.578641
rtoes -38.6235 0 0
lowerback 3.54733 3.6266 -0.233842
upperback 0.950819 4.82487 0.291721
thorax -0.782968 2.42151 0.704434
lowerneck -6.47401 -2.78084 3.49061
upperneck 7.79495 -4.2525 1.98654
head 3.62611 -1.91091 -0.175244
lclavicle 4.46769e-014 1.51076e-014 0
lhumerus -49.0623 -9.71142 83.7635
lradius 54.4195 -0 0
lwrist 18.55 0 0
lhand 1.08876 4.9263 -0.168402
lfingers 7.12502 -0 0
lthumb 26.6346 33.0772 -0.143271
rclavicle 4.46769e-014 1.51076e-014 0
rhumerus -36.2762 13.1883 -68.1618
rradius 53.7107 -0 0
rwrist 5.38248 0 0
rhand -18.2308 -23.6722 -0.442372
rfingers 7.12502 -0 0
rthumb 8.0237 -53.0175 -0.312746
850
root 3.64528 16.3447 27.9358 -8.07582 1.85502 -2.23764
lfemur -22.2467 0.853715 -12.4158
ltibia 33.2296 -0 0
lfoot -3.20091 -11.7677 0.450319
ltoes 4.82724 -0 0
rfemur -25.3212 -15.1449 15.6849
rtibia 50.5352 -0 0
rfoot 7.00886 13.2078 -0.575642
rtoes -38.895 0 0
lowerback 4.27128 3.34113 -0.564138
upperback 1.20245 4.42699 0.173993
thorax -0.921175 2.22431 0.774304
lowerneck -6.53417 -2.74985 3.47764
upperneck 7.6853 -4.21847 2.09186
head 3.60222 -1.89152 -0.137217
lclavicle 4.46769e-014 1.51076e-014 0
lhumerus -48.1979 -10.5651 83.4782
lradius 54.8204 -0 0
lwrist 18.9253 0 0
lhand 1.58324 4.81753 -0.18367
lfingers 7.12502 -0 0
lthumb 27.1088 32.9037 -0.152871
rclavicle 4.46769e-014 1.51076e-014 0
rhumerus -36.8081 11.5093 -66.5841
rradius 53.1856 -0 0
rwrist 5.43104 0 0
rhand -17.0795 -23.96 -0.477153
rfingers 7.12502 -0 0
rthumb 9.13218 -53.2261 -0.339702
851
root 3.66601 16.3535 28.0309 -8.57841 2.55869 -1.98668
lfemur -21.4894 1.127 -12.9573
ltibia 33.3884 -0 0
lfoot -3.5135 -12.61 0.475116
ltoes 5.70005 -0 0
rfemur -28.2359 -15.6584 16.9395
rtibia 49.4404 -0 0
rfoot 6.51597 13.7167 -0.562938
rtoes -39.1399 0 0
lowerback 5.01078 3.05335 -0.901955
upperback 1.45926 4.02062 0.0506214
thorax -1.06243 2.02279 0.842647
lowerneck -6.59548 -2.71892 3.46201
upperneck 7.56555 -4.18402 2.19976
head 3.57534 -1.87214 -0.0978102
lclavicle 4.46769e-014 1.51076e-014 0
lhumerus -47.3113 -11.4384 83.185
lradius 55.2349 -0 0
lwrist 19.3102 0 0
lhand 2.08393 4.70775 -0.197307
lfingers 7.12502 -0 0
lthumb 27.5888 32.7269 -0.160914
rclavicle 4.46769e-014 1.51076e-014 0
rhumerus -37.3848 9.83124 -65.005
rradius 52.6753 -0 0
rwrist 5.4751 0 0
rhand -15.8972 -24.2553 -0.505492
rfingers 7.12502 -0 0
rthumb 10.2704 -53.4401 -0.361906
852
root 3.68674 16.3623 28.1261 -9.07521 3.28879 -1.74047
lfemur -20.7383 1.41843 -13.5008
ltibia 33.5579 -0 0
lfoot -3.84138 -13.4544 0.494066
ltoes 6.59092 -0 0
rfemur -31.1985 -16.1042 18.2379
rtibia 48.3287 -0 0
rfoot 5.99707 14.2076 -0.54104
rtoes -39.3536 0 0
lowerback 5.76094 2.76491 -1.24577
upperback 1.7196 3.60787 -0.0776582
thorax -1.20583 1.81795 0.909392
lowerneck -6.65761 -2.68853 3.44362
upperneck 7.43713 -4.14973 2.30969
head 3.54588 -1.85307 -0.0572203
lclavicle 4.46769e-014 1.51076e-014 0
lhumerus -46.4073 -12.3271 82.8857
lradius 55.6601 -0 0
lwrist 19.7014 0 0
lhand 2.59044 4.59857 -0.209033
lfingers 7.12502 -0 0
lthumb 28.0742 32.5482 -0.167253
rclavicle 4.46769e-014 1.51076e-014 0
rhumerus -38.0043 8.16402 -63.4306
rradius 52.1858 -0 0
rwrist 5.51373 0 0
rhand -14.6904 -24.5545 -0.526627
rfingers 7.12502 -0 0
rthumb 11.432 -53.6564 -0.378734
